<mxfile host="app.diagrams.net" modified="2022-05-05T06:37:22.340Z" agent="5.0 (X11)" etag="hqRcfGNZGQFYaAVNNX08" version="18.0.0" type="github">
  <diagram id="R2lEEEUBdFMjLlhIrx00" name="Page-1">
    <mxGraphModel dx="928" dy="1586" grid="1" gridSize="10" guides="1" tooltips="1" connect="1" arrows="1" fold="1" page="1" pageScale="1" pageWidth="850" pageHeight="1100" math="0" shadow="0" extFonts="Permanent Marker^https://fonts.googleapis.com/css?family=Permanent+Marker">
      <root>
        <mxCell id="0" />
        <mxCell id="1" parent="0" />
        <mxCell id="7aJthYfvoSi7rJQnL4Is-11" style="edgeStyle=orthogonalEdgeStyle;rounded=0;orthogonalLoop=1;jettySize=auto;html=1;" edge="1" parent="1" source="7aJthYfvoSi7rJQnL4Is-1" target="7aJthYfvoSi7rJQnL4Is-2">
          <mxGeometry relative="1" as="geometry" />
        </mxCell>
        <mxCell id="7aJthYfvoSi7rJQnL4Is-12" style="edgeStyle=orthogonalEdgeStyle;rounded=0;orthogonalLoop=1;jettySize=auto;html=1;" edge="1" parent="1" source="7aJthYfvoSi7rJQnL4Is-1" target="7aJthYfvoSi7rJQnL4Is-8">
          <mxGeometry relative="1" as="geometry" />
        </mxCell>
        <mxCell id="7aJthYfvoSi7rJQnL4Is-1" value="&lt;b&gt;Task&lt;/b&gt;" style="rounded=1;whiteSpace=wrap;html=1;" vertex="1" parent="1">
          <mxGeometry x="95" y="240" width="120" height="60" as="geometry" />
        </mxCell>
        <mxCell id="7aJthYfvoSi7rJQnL4Is-2" value="status" style="rounded=1;whiteSpace=wrap;html=1;" vertex="1" parent="1">
          <mxGeometry x="95" y="350" width="120" height="60" as="geometry" />
        </mxCell>
        <mxCell id="7aJthYfvoSi7rJQnL4Is-9" style="edgeStyle=orthogonalEdgeStyle;rounded=0;orthogonalLoop=1;jettySize=auto;html=1;entryX=0.5;entryY=1;entryDx=0;entryDy=0;" edge="1" parent="1" source="7aJthYfvoSi7rJQnL4Is-5" target="7aJthYfvoSi7rJQnL4Is-6">
          <mxGeometry relative="1" as="geometry" />
        </mxCell>
        <mxCell id="7aJthYfvoSi7rJQnL4Is-10" style="edgeStyle=orthogonalEdgeStyle;rounded=0;orthogonalLoop=1;jettySize=auto;html=1;" edge="1" parent="1" source="7aJthYfvoSi7rJQnL4Is-5" target="7aJthYfvoSi7rJQnL4Is-7">
          <mxGeometry relative="1" as="geometry" />
        </mxCell>
        <mxCell id="7aJthYfvoSi7rJQnL4Is-5" value="&lt;b&gt;Assignment&lt;/b&gt;" style="rounded=1;whiteSpace=wrap;html=1;" vertex="1" parent="1">
          <mxGeometry x="460" y="350" width="120" height="60" as="geometry" />
        </mxCell>
        <mxCell id="7aJthYfvoSi7rJQnL4Is-27" style="edgeStyle=orthogonalEdgeStyle;rounded=0;orthogonalLoop=1;jettySize=auto;html=1;dashed=1;" edge="1" parent="1" source="7aJthYfvoSi7rJQnL4Is-6" target="7aJthYfvoSi7rJQnL4Is-26">
          <mxGeometry relative="1" as="geometry" />
        </mxCell>
        <mxCell id="7aJthYfvoSi7rJQnL4Is-6" value="&lt;p&gt;&lt;/p&gt;&lt;p&gt;performer_id&lt;/p&gt;" style="rounded=1;whiteSpace=wrap;html=1;" vertex="1" parent="1">
          <mxGeometry x="460" y="240" width="120" height="60" as="geometry" />
        </mxCell>
        <mxCell id="7aJthYfvoSi7rJQnL4Is-7" value="task_id" style="rounded=1;whiteSpace=wrap;html=1;" vertex="1" parent="1">
          <mxGeometry x="285" y="350" width="120" height="60" as="geometry" />
        </mxCell>
        <mxCell id="7aJthYfvoSi7rJQnL4Is-15" style="edgeStyle=orthogonalEdgeStyle;rounded=0;orthogonalLoop=1;jettySize=auto;html=1;dashed=1;" edge="1" parent="1" source="7aJthYfvoSi7rJQnL4Is-8" target="7aJthYfvoSi7rJQnL4Is-13">
          <mxGeometry relative="1" as="geometry" />
        </mxCell>
        <mxCell id="7aJthYfvoSi7rJQnL4Is-8" value="price" style="rounded=1;whiteSpace=wrap;html=1;" vertex="1" parent="1">
          <mxGeometry x="285" y="240" width="120" height="60" as="geometry" />
        </mxCell>
        <mxCell id="7aJthYfvoSi7rJQnL4Is-13" value="&lt;div&gt;Price&lt;/div&gt;&lt;div&gt;Calculation&lt;/div&gt;&lt;div&gt;Service&lt;br&gt;&lt;/div&gt;" style="ellipse;whiteSpace=wrap;html=1;aspect=fixed;" vertex="1" parent="1">
          <mxGeometry x="285" y="30" width="120" height="120" as="geometry" />
        </mxCell>
        <mxCell id="7aJthYfvoSi7rJQnL4Is-20" style="edgeStyle=orthogonalEdgeStyle;rounded=0;orthogonalLoop=1;jettySize=auto;html=1;entryX=0.5;entryY=1;entryDx=0;entryDy=0;dashed=1;" edge="1" parent="1" source="7aJthYfvoSi7rJQnL4Is-17" target="7aJthYfvoSi7rJQnL4Is-2">
          <mxGeometry relative="1" as="geometry" />
        </mxCell>
        <mxCell id="7aJthYfvoSi7rJQnL4Is-17" value="Created" style="text;html=1;strokeColor=none;fillColor=none;align=center;verticalAlign=middle;whiteSpace=wrap;rounded=0;" vertex="1" parent="1">
          <mxGeometry x="55" y="470" width="60" height="30" as="geometry" />
        </mxCell>
        <mxCell id="7aJthYfvoSi7rJQnL4Is-21" style="edgeStyle=orthogonalEdgeStyle;rounded=0;orthogonalLoop=1;jettySize=auto;html=1;dashed=1;" edge="1" parent="1" source="7aJthYfvoSi7rJQnL4Is-18" target="7aJthYfvoSi7rJQnL4Is-2">
          <mxGeometry relative="1" as="geometry" />
        </mxCell>
        <mxCell id="7aJthYfvoSi7rJQnL4Is-18" value="Assigned" style="text;html=1;strokeColor=none;fillColor=none;align=center;verticalAlign=middle;whiteSpace=wrap;rounded=0;" vertex="1" parent="1">
          <mxGeometry x="125" y="470" width="60" height="30" as="geometry" />
        </mxCell>
        <mxCell id="7aJthYfvoSi7rJQnL4Is-22" style="edgeStyle=orthogonalEdgeStyle;rounded=0;orthogonalLoop=1;jettySize=auto;html=1;entryX=0.5;entryY=1;entryDx=0;entryDy=0;dashed=1;" edge="1" parent="1" source="7aJthYfvoSi7rJQnL4Is-19" target="7aJthYfvoSi7rJQnL4Is-2">
          <mxGeometry relative="1" as="geometry" />
        </mxCell>
        <mxCell id="7aJthYfvoSi7rJQnL4Is-19" value="Completed" style="text;html=1;strokeColor=none;fillColor=none;align=center;verticalAlign=middle;whiteSpace=wrap;rounded=0;" vertex="1" parent="1">
          <mxGeometry x="195" y="470" width="60" height="30" as="geometry" />
        </mxCell>
        <mxCell id="7aJthYfvoSi7rJQnL4Is-26" value="&lt;div&gt;Users&lt;/div&gt;&lt;div&gt;Service&lt;br&gt;&lt;/div&gt;" style="ellipse;whiteSpace=wrap;html=1;aspect=fixed;" vertex="1" parent="1">
          <mxGeometry x="665" y="300" width="140" height="140" as="geometry" />
        </mxCell>
        <mxCell id="7aJthYfvoSi7rJQnL4Is-37" value="" style="edgeStyle=orthogonalEdgeStyle;rounded=0;orthogonalLoop=1;jettySize=auto;html=1;" edge="1" parent="1" source="7aJthYfvoSi7rJQnL4Is-28" target="7aJthYfvoSi7rJQnL4Is-30">
          <mxGeometry relative="1" as="geometry" />
        </mxCell>
        <mxCell id="7aJthYfvoSi7rJQnL4Is-28" value="account_id" style="rounded=1;whiteSpace=wrap;html=1;" vertex="1" parent="1">
          <mxGeometry x="345" y="530" width="120" height="60" as="geometry" />
        </mxCell>
        <mxCell id="7aJthYfvoSi7rJQnL4Is-30" value="Balance" style="rounded=1;whiteSpace=wrap;html=1;fontStyle=1" vertex="1" parent="1">
          <mxGeometry x="185" y="530" width="120" height="60" as="geometry" />
        </mxCell>
        <mxCell id="7aJthYfvoSi7rJQnL4Is-38" value="" style="edgeStyle=orthogonalEdgeStyle;rounded=0;orthogonalLoop=1;jettySize=auto;html=1;" edge="1" parent="1" source="7aJthYfvoSi7rJQnL4Is-35" target="7aJthYfvoSi7rJQnL4Is-30">
          <mxGeometry relative="1" as="geometry" />
        </mxCell>
        <mxCell id="7aJthYfvoSi7rJQnL4Is-35" value="type" style="rounded=1;whiteSpace=wrap;html=1;" vertex="1" parent="1">
          <mxGeometry x="100" y="650" width="120" height="60" as="geometry" />
        </mxCell>
        <mxCell id="7aJthYfvoSi7rJQnL4Is-39" style="edgeStyle=orthogonalEdgeStyle;rounded=0;orthogonalLoop=1;jettySize=auto;html=1;" edge="1" parent="1" source="7aJthYfvoSi7rJQnL4Is-36" target="7aJthYfvoSi7rJQnL4Is-30">
          <mxGeometry relative="1" as="geometry" />
        </mxCell>
        <mxCell id="7aJthYfvoSi7rJQnL4Is-36" value="value" style="rounded=1;whiteSpace=wrap;html=1;" vertex="1" parent="1">
          <mxGeometry x="260" y="650" width="120" height="60" as="geometry" />
        </mxCell>
        <mxCell id="7aJthYfvoSi7rJQnL4Is-44" style="edgeStyle=orthogonalEdgeStyle;rounded=0;orthogonalLoop=1;jettySize=auto;html=1;entryX=0.5;entryY=1;entryDx=0;entryDy=0;dashed=1;" edge="1" parent="1" source="7aJthYfvoSi7rJQnL4Is-41" target="7aJthYfvoSi7rJQnL4Is-35">
          <mxGeometry relative="1" as="geometry" />
        </mxCell>
        <mxCell id="7aJthYfvoSi7rJQnL4Is-41" value="Debit" style="text;html=1;align=center;verticalAlign=middle;resizable=0;points=[];autosize=1;strokeColor=none;fillColor=none;" vertex="1" parent="1">
          <mxGeometry x="55" y="790" width="50" height="20" as="geometry" />
        </mxCell>
        <mxCell id="7aJthYfvoSi7rJQnL4Is-45" style="edgeStyle=orthogonalEdgeStyle;rounded=0;orthogonalLoop=1;jettySize=auto;html=1;dashed=1;" edge="1" parent="1" source="7aJthYfvoSi7rJQnL4Is-42" target="7aJthYfvoSi7rJQnL4Is-35">
          <mxGeometry relative="1" as="geometry" />
        </mxCell>
        <mxCell id="7aJthYfvoSi7rJQnL4Is-42" value="Credit" style="text;html=1;align=center;verticalAlign=middle;resizable=0;points=[];autosize=1;strokeColor=none;fillColor=none;" vertex="1" parent="1">
          <mxGeometry x="135" y="790" width="50" height="20" as="geometry" />
        </mxCell>
        <mxCell id="7aJthYfvoSi7rJQnL4Is-46" style="edgeStyle=orthogonalEdgeStyle;rounded=0;orthogonalLoop=1;jettySize=auto;html=1;dashed=1;" edge="1" parent="1" source="7aJthYfvoSi7rJQnL4Is-43" target="7aJthYfvoSi7rJQnL4Is-35">
          <mxGeometry relative="1" as="geometry" />
        </mxCell>
        <mxCell id="7aJthYfvoSi7rJQnL4Is-43" value="Withdraw" style="text;html=1;align=center;verticalAlign=middle;resizable=0;points=[];autosize=1;strokeColor=none;fillColor=none;" vertex="1" parent="1">
          <mxGeometry x="215" y="790" width="70" height="20" as="geometry" />
        </mxCell>
        <mxCell id="7aJthYfvoSi7rJQnL4Is-47" value="&lt;b&gt;Account&lt;/b&gt;" style="rounded=1;whiteSpace=wrap;html=1;" vertex="1" parent="1">
          <mxGeometry x="510" y="530" width="120" height="60" as="geometry" />
        </mxCell>
        <mxCell id="7aJthYfvoSi7rJQnL4Is-52" value="" style="edgeStyle=orthogonalEdgeStyle;rounded=0;orthogonalLoop=1;jettySize=auto;html=1;" edge="1" parent="1" source="7aJthYfvoSi7rJQnL4Is-48" target="7aJthYfvoSi7rJQnL4Is-47">
          <mxGeometry relative="1" as="geometry" />
        </mxCell>
        <mxCell id="7aJthYfvoSi7rJQnL4Is-54" style="edgeStyle=orthogonalEdgeStyle;rounded=0;orthogonalLoop=1;jettySize=auto;html=1;dashed=1;" edge="1" parent="1" source="7aJthYfvoSi7rJQnL4Is-48" target="7aJthYfvoSi7rJQnL4Is-26">
          <mxGeometry relative="1" as="geometry" />
        </mxCell>
        <mxCell id="7aJthYfvoSi7rJQnL4Is-48" value="user_id" style="rounded=1;whiteSpace=wrap;html=1;" vertex="1" parent="1">
          <mxGeometry x="675" y="530" width="120" height="60" as="geometry" />
        </mxCell>
        <mxCell id="7aJthYfvoSi7rJQnL4Is-51" value="" style="edgeStyle=orthogonalEdgeStyle;rounded=0;orthogonalLoop=1;jettySize=auto;html=1;" edge="1" parent="1" source="7aJthYfvoSi7rJQnL4Is-49" target="7aJthYfvoSi7rJQnL4Is-47">
          <mxGeometry relative="1" as="geometry" />
        </mxCell>
        <mxCell id="7aJthYfvoSi7rJQnL4Is-49" value="balance" style="whiteSpace=wrap;html=1;rounded=1;" vertex="1" parent="1">
          <mxGeometry x="510" y="640" width="120" height="60" as="geometry" />
        </mxCell>
        <mxCell id="7aJthYfvoSi7rJQnL4Is-66" style="edgeStyle=orthogonalEdgeStyle;rounded=0;orthogonalLoop=1;jettySize=auto;html=1;" edge="1" parent="1" source="7aJthYfvoSi7rJQnL4Is-57" target="7aJthYfvoSi7rJQnL4Is-64">
          <mxGeometry relative="1" as="geometry" />
        </mxCell>
        <mxCell id="7aJthYfvoSi7rJQnL4Is-57" value="date&lt;br&gt;&lt;div&gt;price&lt;/div&gt;" style="rounded=1;whiteSpace=wrap;html=1;" vertex="1" parent="1">
          <mxGeometry x="375" y="1020" width="120" height="60" as="geometry" />
        </mxCell>
        <mxCell id="7aJthYfvoSi7rJQnL4Is-67" style="edgeStyle=orthogonalEdgeStyle;rounded=0;orthogonalLoop=1;jettySize=auto;html=1;" edge="1" parent="1" source="7aJthYfvoSi7rJQnL4Is-59" target="7aJthYfvoSi7rJQnL4Is-65">
          <mxGeometry relative="1" as="geometry" />
        </mxCell>
        <mxCell id="7aJthYfvoSi7rJQnL4Is-59" value="&lt;div&gt;date&lt;br&gt;&lt;/div&gt;&lt;div&gt;user_id&lt;/div&gt;&lt;div&gt;balance&lt;br&gt;&lt;/div&gt;" style="rounded=1;whiteSpace=wrap;html=1;" vertex="1" parent="1">
          <mxGeometry x="570" y="1020" width="120" height="60" as="geometry" />
        </mxCell>
        <mxCell id="7aJthYfvoSi7rJQnL4Is-77" style="edgeStyle=orthogonalEdgeStyle;rounded=0;orthogonalLoop=1;jettySize=auto;html=1;dashed=1;" edge="1" parent="1" source="7aJthYfvoSi7rJQnL4Is-60" target="7aJthYfvoSi7rJQnL4Is-65">
          <mxGeometry relative="1" as="geometry" />
        </mxCell>
        <mxCell id="7aJthYfvoSi7rJQnL4Is-60" value="&lt;div&gt;count users&lt;/div&gt;&lt;div&gt;with subzero&lt;/div&gt;&lt;div&gt;balance&lt;br&gt;&lt;/div&gt;" style="whiteSpace=wrap;html=1;" vertex="1" parent="1">
          <mxGeometry x="700" y="810" width="120" height="60" as="geometry" />
        </mxCell>
        <mxCell id="7aJthYfvoSi7rJQnL4Is-75" style="edgeStyle=orthogonalEdgeStyle;rounded=0;orthogonalLoop=1;jettySize=auto;html=1;dashed=1;" edge="1" parent="1" source="7aJthYfvoSi7rJQnL4Is-61" target="7aJthYfvoSi7rJQnL4Is-65">
          <mxGeometry relative="1" as="geometry" />
        </mxCell>
        <mxCell id="7aJthYfvoSi7rJQnL4Is-61" value="sum manager profit" style="whiteSpace=wrap;html=1;" vertex="1" parent="1">
          <mxGeometry x="440" y="810" width="120" height="60" as="geometry" />
        </mxCell>
        <mxCell id="7aJthYfvoSi7rJQnL4Is-76" style="edgeStyle=orthogonalEdgeStyle;rounded=0;orthogonalLoop=1;jettySize=auto;html=1;dashed=1;" edge="1" parent="1" source="7aJthYfvoSi7rJQnL4Is-62" target="7aJthYfvoSi7rJQnL4Is-65">
          <mxGeometry relative="1" as="geometry" />
        </mxCell>
        <mxCell id="7aJthYfvoSi7rJQnL4Is-62" value="sum managment profit" style="whiteSpace=wrap;html=1;" vertex="1" parent="1">
          <mxGeometry x="570" y="740" width="120" height="60" as="geometry" />
        </mxCell>
        <mxCell id="7aJthYfvoSi7rJQnL4Is-68" style="edgeStyle=orthogonalEdgeStyle;rounded=0;orthogonalLoop=1;jettySize=auto;html=1;dashed=1;" edge="1" parent="1" source="7aJthYfvoSi7rJQnL4Is-63" target="7aJthYfvoSi7rJQnL4Is-64">
          <mxGeometry relative="1" as="geometry" />
        </mxCell>
        <mxCell id="7aJthYfvoSi7rJQnL4Is-63" value="&lt;div&gt;max price today&lt;/div&gt;&lt;div&gt;max price at week&lt;/div&gt;&lt;div&gt;max price at month&lt;br&gt;&lt;/div&gt;" style="whiteSpace=wrap;html=1;" vertex="1" parent="1">
          <mxGeometry x="35" y="910" width="150" height="80" as="geometry" />
        </mxCell>
        <mxCell id="7aJthYfvoSi7rJQnL4Is-64" value="Price" style="rounded=1;whiteSpace=wrap;html=1;fontStyle=1" vertex="1" parent="1">
          <mxGeometry x="375" y="920" width="120" height="60" as="geometry" />
        </mxCell>
        <mxCell id="7aJthYfvoSi7rJQnL4Is-65" value="Balance" style="rounded=1;whiteSpace=wrap;html=1;fontStyle=1" vertex="1" parent="1">
          <mxGeometry x="570" y="920" width="120" height="60" as="geometry" />
        </mxCell>
      </root>
    </mxGraphModel>
  </diagram>
</mxfile>
